<svg xmlns="http://www.w3.org/2000/svg" xmlns:xlink="http://www.w3.org/1999/xlink" viewBox="0 0 29.12 36.66"><defs><style>.cls-1,.cls-3{fill:#fff;}.cls-1,.cls-5,.cls-6{stroke:#f4d80f;}.cls-1,.cls-2,.cls-5,.cls-6{stroke-miterlimit:10;}.cls-2{fill:#f9fafa;stroke:#231f20;stroke-width:0.39px;}.cls-4{clip-path:url(#clip-path);}.cls-5{fill:none;}.cls-6{stroke-linecap:round;}</style><clipPath id="clip-path"><ellipse class="cls-1" cx="9.36" cy="18.33" rx="6.07" ry="17.83"/></clipPath></defs><title>Ресурс 4first</title><g id="Слой_2" data-name="Слой 2"><g id="Слой_1-2" data-name="Слой 1"><ellipse class="cls-2" cx="9.36" cy="18.33" rx="6.07" ry="17.83"/><ellipse class="cls-3" cx="9.36" cy="18.33" rx="6.07" ry="17.83"/><g class="cls-4"><ellipse cx="6.07" cy="18.33" rx="6.07" ry="17.83"/></g><ellipse class="cls-5" cx="9.36" cy="18.33" rx="6.07" ry="17.83"/><path class="cls-6" d="M3.7,16.32C4.65,13.19,9.56,1.13,15.92.94a8.42,8.42,0,0,1,7.66,5c1,2.56-.39,4,.24,7.08.7,3.48,4,5,4.71,6.88.3.79-.17,2-.7,2.14-.78.22-2.34-1.18-4.39-3.9-2.38-3.14-5.82-4.9-8-4.68s-3.09,2.66-3.33,3.23c-2,4.81-5.52,13.14-6.62,14.3C4.74,31.78,2.54,20.16,3.7,16.32Z"/><path d="M19.17,5.71a2.09,2.09,0,0,1,.77,3,.49.49,0,0,1-.62.23,3.12,3.12,0,0,1-2-2.91.53.53,0,0,1,.4-.51A1.74,1.74,0,0,1,19.17,5.71Zm.27.46a.78.78,0,0,0-1.12.25A1.25,1.25,0,0,0,18.75,8a.83.83,0,0,0,1.16-.25A1.18,1.18,0,0,0,19.44,6.17Z"/><path class="cls-3" d="M19.44,6.17a1.18,1.18,0,0,1,.48,1.59A.83.83,0,0,1,18.75,8a1.25,1.25,0,0,1-.44-1.59A.78.78,0,0,1,19.44,6.17Zm.35,1c-.11-.2-.17-.42-.24-.42a4.58,4.58,0,0,0-.77.1c0,.16.09.46.13.46A5.49,5.49,0,0,0,19.79,7.16Z"/><path d="M16.44,7.47a2.09,2.09,0,0,1,.77,3,.49.49,0,0,1-.62.23,3.12,3.12,0,0,1-2-2.91A.53.53,0,0,1,15,7.3,1.74,1.74,0,0,1,16.44,7.47Zm.27.46a.78.78,0,0,0-1.12.25A1.25,1.25,0,0,0,16,9.77a.83.83,0,0,0,1.16-.25A1.18,1.18,0,0,0,16.7,7.93Z"/><path class="cls-3" d="M16.7,7.93a1.18,1.18,0,0,1,.48,1.59A.83.83,0,0,1,16,9.77a1.25,1.25,0,0,1-.44-1.59A.78.78,0,0,1,16.7,7.93Zm.35,1c-.11-.2-.17-.42-.24-.42a4.58,4.58,0,0,0-.77.1c0,.16.09.46.13.46A5.49,5.49,0,0,0,17.05,8.92Z"/><path d="M17.05,8.92a5.49,5.49,0,0,1-.87.14s-.09-.3-.13-.46a4.58,4.58,0,0,1,.77-.1C16.88,8.5,16.95,8.72,17.05,8.92Z"/></g></g></svg>