<svg xmlns="http://www.w3.org/2000/svg" viewBox="0 0 136.99 136.99"><defs><style>.cls-1{fill:#6172f0;}.cls-2{fill:#fff;}</style></defs><title>Ресурс 1first</title><g id="Слой_2" data-name="Слой 2"><g id="Слой_1-2" data-name="Слой 1"><circle class="cls-1" cx="68.49" cy="68.49" r="68.49"/><path d="M73.41,21.88C96,22.43,112,39.55,110.29,61.13c-.4,5-2.49,7.54-7.52,8.66-19.11,4.28-46-9.23-54.1-27.33-1.91-4.26-1.36-7.81,1.78-11.13C56.69,24.73,64.44,21.83,73.41,21.88Zm7.87,4.74c-8.37-.37-14.4,5-14.82,13.21-.5,9.68,9.25,19.61,20,20.33a14.27,14.27,0,0,0,15.45-13.55C102.34,36.15,93.07,27.15,81.28,26.63Z"/><path class="cls-2" d="M81.28,26.63c11.79.52,21.06,9.52,20.58,20A14.27,14.27,0,0,1,86.41,60.17c-10.7-.71-20.46-10.65-20-20.33C66.88,31.63,72.91,26.26,81.28,26.63Zm13.53,12c-3.26-2.09-6-4.89-7.05-4.35-3.87,2.07-7.17,5.2-10.69,7.94,2,2,5.2,6.13,5.83,5.77C86.8,45.72,90.12,42.48,94.81,38.59Z"/><path d="M94.81,38.59c-4.69,3.89-8,7.13-11.91,9.36-.63.36-3.82-3.73-5.83-5.77,3.51-2.74,6.82-5.87,10.69-7.94C88.77,33.71,91.55,36.5,94.81,38.59Z"/></g></g></svg>