<svg xmlns="http://www.w3.org/2000/svg" viewBox="0 0 55.85 55.85"><defs><style>.cls-1{fill:#6172f0;}.cls-2{fill:#fff;}</style></defs><title>Ресурс 2first</title><g id="Слой_2" data-name="Слой 2"><g id="Слой_1-2" data-name="Слой 1"><circle class="cls-1" cx="27.92" cy="27.92" r="27.92" transform="translate(-9.78 39.68) rotate(-62.32)"/><path d="M20.61,6.77c9.14-2.49,17.6,2.46,19.49,11.32a3.52,3.52,0,0,1-2,4.37c-7.15,4-19.55,1.8-25-4.49a3.86,3.86,0,0,1-.62-4.67A12.52,12.52,0,0,1,20.61,6.77Zm3.73,1A5.62,5.62,0,0,0,20,14.81c1,3.94,6.06,6.76,10.44,5.77A6,6,0,0,0,35,13.29C33.92,9,29.12,6.53,24.33,7.73Z"/><path class="cls-2" d="M24.33,7.73C29.12,6.53,33.92,9,35,13.29a6,6,0,0,1-4.57,7.28c-4.38,1-9.48-1.82-10.44-5.77A5.62,5.62,0,0,1,24.33,7.73Zm6.86,3.18c-1.56-.45-3-1.24-3.35-.9a33.05,33.05,0,0,0-3.34,4.46c1,.58,2.82,1.84,3,1.62A39.59,39.59,0,0,0,31.19,10.91Z"/><path d="M31.19,10.91a39.59,39.59,0,0,1-3.66,5.18c-.21.22-2-1-3-1.62A33.05,33.05,0,0,1,27.84,10C28.18,9.68,29.63,10.46,31.19,10.91Z"/></g></g></svg>