<svg xmlns="http://www.w3.org/2000/svg" viewBox="0 0 28.42 28.42"><defs><style>.cls-1{fill:#f4d80f;}.cls-2{fill:#fff;}</style></defs><title>Ресурс 19first</title><g id="Слой_2" data-name="Слой 2"><g id="Слой_1-2" data-name="Слой 1"><circle class="cls-1" cx="14.21" cy="14.21" r="14.21" transform="translate(-0.32 0.33) rotate(-1.31)"/><path d="M5.16,11.47c1.69-4.66,6.36-6.78,10.72-4.91a1.84,1.84,0,0,1,1.27,2.16C16.7,13,12,17.62,7.7,18a2,2,0,0,1-2.18-1.15A6.55,6.55,0,0,1,5.16,11.47Zm1.53-1.3a2.94,2.94,0,0,0,1.7,4c2,.78,4.72-.55,5.61-2.72a3.12,3.12,0,0,0-1.73-4.15A4.47,4.47,0,0,0,6.69,10.17Z"/><path class="cls-2" d="M6.69,10.17a4.47,4.47,0,0,1,5.59-2.87A3.12,3.12,0,0,1,14,11.45c-.9,2.17-3.64,3.5-5.61,2.72A2.94,2.94,0,0,1,6.69,10.17Zm3.43-2c-.66.53-1.44.91-1.4,1.16a17.29,17.29,0,0,0,.9,2.77c.56-.27,1.64-.65,1.6-.81A20.71,20.71,0,0,0,10.12,8.19Z"/><path d="M10.12,8.19a20.71,20.71,0,0,1,1.11,3.13c0,.16-1,.53-1.6.81a17.29,17.29,0,0,1-.9-2.77C8.69,9.11,9.46,8.72,10.12,8.19Z"/></g></g></svg>