<svg xmlns="http://www.w3.org/2000/svg" viewBox="0 0 90.06 90.06"><defs><style>.cls-1{fill:#f4d80f;}.cls-2{fill:#fff;}</style></defs><title>Ресурс 18first</title><g id="Слой_2" data-name="Слой 2"><g id="Слой_1-2" data-name="Слой 1"><circle class="cls-1" cx="45.03" cy="45.03" r="45.03"/><path d="M69.23,28.7C72.31,32,72.85,35.44,71,39.63c-8,17.78-34.37,31-53.14,26.84-4.93-1.1-7-3.59-7.38-8.51-1.7-21.19,14-38,36.23-38.54C55.49,19.37,63.1,22.22,69.23,28.7Zm-50.49,15A14,14,0,0,0,33.91,57c10.51-.7,20.09-10.46,19.6-20C53.1,29,47.17,23.72,39,24.08,27.37,24.59,18.27,33.43,18.74,43.71Z"/><path class="cls-2" d="M53.51,37.06c.49,9.51-9.09,19.27-19.6,20A14,14,0,0,1,18.74,43.71C18.27,33.43,27.37,24.59,39,24.08,47.17,23.72,53.1,29,53.51,37.06ZM37.36,45c.62.36,3.75-3.67,5.73-5.67-3.45-2.69-6.7-5.77-10.5-7.8-1-.53-3.72,2.22-6.93,4.27C30.27,39.65,33.53,42.83,37.36,45Z"/><path d="M25.66,35.83c4.61,3.82,7.87,7,11.7,9.19.62.36,3.75-3.67,5.73-5.67-3.45-2.69-6.7-5.77-10.5-7.8C31.6,31,28.86,33.78,25.66,35.83Z"/></g></g></svg>