<svg xmlns="http://www.w3.org/2000/svg" viewBox="0 0 63.85 49.7"><defs><style>.cls-1{stroke:#fff;stroke-miterlimit:10;}.cls-2{fill:#fff;}</style></defs><title>Ресурс 16first</title><g id="Слой_2" data-name="Слой 2"><g id="Слой_1-2" data-name="Слой 1"><path class="cls-1" d="M26.33.5C49,1,65,18.17,63.22,39.74c-.4,5-2.49,7.54-7.52,8.66C36.6,52.68,9.7,39.17,1.6,21.07-.3,16.81.25,13.26,3.38,9.95,9.62,3.35,17.36.45,26.33.5Zm7.87,4.74c-8.37-.37-14.4,5-14.82,13.21-.5,9.68,9.25,19.61,20,20.33A14.27,14.27,0,0,0,54.79,25.23C55.27,14.77,46,5.76,34.21,5.25Z"/><path class="cls-2" d="M34.21,5.25c11.79.52,21.06,9.52,20.58,20A14.27,14.27,0,0,1,39.34,38.79c-10.7-.71-20.46-10.65-20-20.33C19.81,10.25,25.83,4.88,34.21,5.25Zm13.53,12c-3.26-2.09-6-4.89-7.05-4.35-3.87,2.07-7.17,5.2-10.69,7.94,2,2,5.2,6.13,5.83,5.77C39.73,24.34,43,21.1,47.74,17.21Z"/><path d="M47.74,17.21c-4.69,3.89-8,7.13-11.91,9.36C35.2,26.94,32,22.84,30,20.8c3.51-2.74,6.82-5.87,10.69-7.94C41.7,12.32,44.48,15.12,47.74,17.21Z"/></g></g></svg>