<svg xmlns="http://www.w3.org/2000/svg" viewBox="0 0 30.14 28.95"><defs><style>.cls-1{stroke:#fff;stroke-miterlimit:10;}.cls-2{fill:#fff;}</style></defs><title>Ресурс 15first</title><g id="Слой_2" data-name="Слой 2"><g id="Слой_1-2" data-name="Слой 1"><path class="cls-1" d="M1.61,13.06C5.78,2.35,16.73-2.32,26.73,2.24,29,3.3,29.9,4.74,29.57,7.33,28.3,17.2,17.19,27.7,7.15,28.43a4.68,4.68,0,0,1-5-2.77A15.19,15.19,0,0,1,1.61,13.06Zm3.63-2.94A6.82,6.82,0,0,0,9,19.49c4.54,1.91,11-1,13.16-6a7.25,7.25,0,0,0-3.8-9.72C13.43,1.72,7.52,4.58,5.24,10.12Z"/><path class="cls-2" d="M5.29,10.33C7.58,4.79,13.48,1.93,18.4,4a7.25,7.25,0,0,1,3.8,9.72c-2.19,5-8.63,7.92-13.16,6A6.82,6.82,0,0,1,5.29,10.33Zm8.06-4.39C11.78,7.14,10,8,10,8.56A40.11,40.11,0,0,0,12,15c1.32-.61,3.83-1.42,3.76-1.79A48,48,0,0,0,13.35,5.94Z"/><path d="M13.29,5.73A48,48,0,0,1,15.7,13c.06.36-2.44,1.18-3.76,1.79A40.11,40.11,0,0,1,10,8.35C9.91,7.77,11.73,6.93,13.29,5.73Z"/></g></g></svg>