<svg xmlns="http://www.w3.org/2000/svg" xmlns:xlink="http://www.w3.org/1999/xlink" viewBox="0 0 42.55 42.24"><defs><style>.cls-1,.cls-3{fill:#fff;}.cls-1,.cls-5,.cls-6{stroke:#f4d80f;stroke-width:1.04px;}.cls-1,.cls-2,.cls-5,.cls-6{stroke-miterlimit:10;}.cls-2{fill:#f9fafa;stroke:#231f20;stroke-width:0.4px;}.cls-4{clip-path:url(#clip-path);}.cls-5{fill:none;}</style><clipPath id="clip-path"><ellipse class="cls-1" cx="32.46" cy="23.89" rx="6.54" ry="17.83"/></clipPath></defs><title>Ресурс 5first</title><g id="Слой_2" data-name="Слой 2"><g id="Слой_1-2" data-name="Слой 1"><ellipse class="cls-2" cx="32.46" cy="23.89" rx="6.54" ry="17.83"/><ellipse class="cls-3" cx="32.46" cy="23.89" rx="6.54" ry="17.83"/><g class="cls-4"><ellipse cx="36.01" cy="23.89" rx="6.54" ry="17.83"/></g><ellipse class="cls-5" cx="32.46" cy="23.89" rx="6.54" ry="17.83"/><path class="cls-6" d="M20.26,8.22A8,8,0,0,1,21.49,9c.62.47,2-1,2.68-.61,1.27.71.11,1.55.81,2.11a1,1,0,0,0,1.14.13,1.4,1.4,0,0,1,1.77,0c1.2.76-.46,2,.45,2.47.71.35.71-.25,1.87-.26a1.86,1.86,0,0,1,2,1.39c.14.72-.4,1.83-.14,2.39.33.72,2.16-.59,3.48.42s1.23,2.3.64,4.48"/><path class="cls-6" d="M20.1,8.4c-.31-.15,2.24-3,1.06-4.24a.94.94,0,0,0-.5-.28c-.89-.15-1.85.73-2.63,1.56-.28.3-.28-.08-1.4-.11s-1.45.15-1.79-.06a2.4,2.4,0,0,1-.62-2.34c.18-.89.69-1.21.5-1.73a1,1,0,0,0-1-.67C13,.67,12.43,2.2,11.93,4.66c-.22,1.07-1.17,1.47-2,2-1,.6-1.24.65-2,1.06-1.45.84-.23,2.26-.5,3a18.46,18.46,0,0,1-4.36,7C2,18.77.62,19.81.52,21.3c0,.07,0,1.06.63,1.2.36.08.39-.78.94-.7s.44.67,1.06.95a1.37,1.37,0,0,0,1.34-.11c.45-.38.16-1,.56-1.51a2.26,2.26,0,0,1,1.51-.67,39.05,39.05,0,0,0,7.83-3c2.29-1.36,2.37-2.1,3.41-2.26,3.82-.57,9.4,6.3,12.31,10.87.5.79,6.35,10.82,6.58,10.82S39,29.88,39,25.44C39,22.44,25.14,10.74,20.1,8.4Z"/><path d="M10.24,9.62a2,2,0,0,0-1.1,3,.54.54,0,0,0,.65.28,3.18,3.18,0,0,0,2.38-2.73.54.54,0,0,0-.39-.55A2,2,0,0,0,10.24,9.62Zm-.33.44a.87.87,0,0,1,1.18.35A1.21,1.21,0,0,1,10.48,12a.93.93,0,0,1-1.23-.35A1.15,1.15,0,0,1,9.92,10.06Z"/><path class="cls-3" d="M9.92,10.06a1.15,1.15,0,0,0-.66,1.55.93.93,0,0,0,1.23.35,1.21,1.21,0,0,0,.62-1.55A.87.87,0,0,0,9.92,10.06Zm-.46,1c.13-.19.22-.4.29-.4a5.27,5.27,0,0,1,.81.17c-.06.16-.14.45-.18.44A6.3,6.3,0,0,1,9.45,11Z"/><path d="M13,11.59a2,2,0,0,0-1.1,3,.54.54,0,0,0,.65.28A3.18,3.18,0,0,0,15,12.09a.54.54,0,0,0-.39-.55A2,2,0,0,0,13,11.59ZM12.7,12a.87.87,0,0,1,1.18.35,1.21,1.21,0,0,1-.62,1.55A.93.93,0,0,1,12,13.58,1.15,1.15,0,0,1,12.7,12Z"/><path class="cls-3" d="M12.7,12A1.15,1.15,0,0,0,12,13.58a.93.93,0,0,0,1.23.35,1.21,1.21,0,0,0,.62-1.55A.87.87,0,0,0,12.7,12Zm-.46,1c.13-.19.22-.4.29-.4a5.27,5.27,0,0,1,.81.17c-.06.16-.14.45-.18.44A6.3,6.3,0,0,1,12.23,13Z"/><path d="M12.23,13a6.3,6.3,0,0,0,.92.21s.12-.29.18-.44a5.27,5.27,0,0,0-.81-.17C12.45,12.59,12.36,12.8,12.23,13Z"/></g></g></svg>