<svg xmlns="http://www.w3.org/2000/svg" xmlns:xlink="http://www.w3.org/1999/xlink" viewBox="0 0 53.51 62.9"><defs><style>.cls-1{fill:none;}.cls-1,.cls-2,.cls-4,.cls-5{stroke:#231f20;stroke-miterlimit:10;}.cls-1,.cls-4,.cls-5{stroke-width:2px;}.cls-2{fill:#f9fafa;}.cls-3{clip-path:url(#clip-path);}.cls-5{fill:#ffbcdf;}</style><clipPath id="clip-path"><ellipse class="cls-1" cx="21.43" cy="48.48" rx="21.37" ry="7.32" transform="translate(-14.1 9.14) rotate(-18.24)"/></clipPath></defs><title>Ресурс 8first</title><g id="Слой_2" data-name="Слой 2"><g id="Слой_1-2" data-name="Слой 1"><ellipse class="cls-2" cx="21.43" cy="48.48" rx="21.37" ry="7.32" transform="matrix(0.95, -0.31, 0.31, 0.95, -14.1, 9.14)"/><g class="cls-3"><ellipse class="cls-4" cx="22.67" cy="52.25" rx="21.37" ry="7.32" transform="translate(-15.21 9.72) rotate(-18.24)"/></g><ellipse class="cls-1" cx="21.43" cy="48.48" rx="21.37" ry="7.32" transform="translate(-14.1 9.14) rotate(-18.24)"/><path class="cls-5" d="M48.92,1a3.68,3.68,0,0,0-3.75,3.58l-.41,18.47L31.53,11.81l0,0a3.63,3.63,0,0,0-2.26-.87,3.67,3.67,0,0,0-3.71,3.25v.06c0,.09,0,.18,0,.27l-.69,30.92a3.67,3.67,0,1,0,7.33.16l.52-23.2L45.83,33.59A3.68,3.68,0,0,0,51,33.17h0a3.65,3.65,0,0,0,.85-2.69,3.65,3.65,0,0,0,.09-.74l.56-25A3.68,3.68,0,0,0,48.92,1Z"/></g></g></svg>