<svg xmlns="http://www.w3.org/2000/svg" xmlns:xlink="http://www.w3.org/1999/xlink" viewBox="0 0 41.27 43.25"><defs><style>.cls-1{fill:none;stroke-width:2px;}.cls-1,.cls-2,.cls-4{stroke:#231f20;stroke-miterlimit:10;}.cls-2{fill:#f9fafa;}.cls-3{clip-path:url(#clip-path);}.cls-4{stroke-width:0.5px;}.cls-5{fill:#fff;}</style><clipPath id="clip-path"><ellipse class="cls-1" cx="20.97" cy="22.2" rx="10.7" ry="20.99" transform="translate(-9.55 21.12) rotate(-44.59)"/></clipPath></defs><title>Ресурс 6first</title><g id="Слой_2" data-name="Слой 2"><g id="Слой_1-2" data-name="Слой 1"><ellipse class="cls-2" cx="20.97" cy="22.2" rx="10.7" ry="20.99" transform="translate(-9.55 21.12) rotate(-44.59)"/><g class="cls-3"><ellipse class="cls-4" cx="16.84" cy="26.27" rx="10.7" ry="20.99" transform="translate(-13.6 19.39) rotate(-44.59)"/></g><ellipse class="cls-1" cx="20.97" cy="22.2" rx="10.7" ry="20.99" transform="translate(-9.55 21.12) rotate(-44.59)"/><path d="M13.24,12.56C17.42,1.85,28.36-2.82,38.37,1.74c2.32,1.06,3.17,2.5,2.84,5.09C39.94,16.7,28.83,27.2,18.79,27.93a4.68,4.68,0,0,1-5-2.77A15.19,15.19,0,0,1,13.24,12.56Zm3.63-2.94A6.82,6.82,0,0,0,20.61,19c4.54,1.91,11-1,13.16-6A7.25,7.25,0,0,0,30,3.26C25.06,1.22,19.16,4.08,16.87,9.62Z"/><path class="cls-5" d="M16.87,9.62C19.16,4.08,25.06,1.22,30,3.26A7.25,7.25,0,0,1,33.77,13c-2.19,5-8.63,7.92-13.16,6A6.82,6.82,0,0,1,16.87,9.62Zm8.06-4.39c-1.56,1.19-3.38,2-3.3,2.61a40.11,40.11,0,0,0,1.94,6.48c1.32-.61,3.83-1.42,3.76-1.79A48,48,0,0,0,24.93,5.23Z"/><path d="M24.93,5.23a48,48,0,0,1,2.41,7.31c.06.36-2.44,1.18-3.76,1.79a40.11,40.11,0,0,1-1.94-6.48C21.55,7.27,23.36,6.43,24.93,5.23Z"/></g></g></svg>