<svg xmlns="http://www.w3.org/2000/svg" xmlns:xlink="http://www.w3.org/1999/xlink" viewBox="0 0 21.41 34.95"><defs><style>.cls-1,.cls-3{fill:#fff;}.cls-1,.cls-5{stroke:#f4d80f;}.cls-1,.cls-2,.cls-5{stroke-miterlimit:10;}.cls-2,.cls-6{fill:#f9fafa;}.cls-2{stroke:#231f20;stroke-width:0.39px;}.cls-4{clip-path:url(#clip-path);}.cls-5{fill:none;}</style><clipPath id="clip-path"><ellipse class="cls-1" cx="11.97" cy="17.08" rx="6.07" ry="17.83" transform="translate(-5.73 6.05) rotate(-23.04)"/></clipPath></defs><title>Ресурс 10first</title><g id="Слой_2" data-name="Слой 2"><g id="Слой_1-2" data-name="Слой 1"><ellipse class="cls-2" cx="11.97" cy="17.08" rx="6.07" ry="17.83" transform="translate(-5.73 6.05) rotate(-23.04)"/><ellipse class="cls-3" cx="11.97" cy="17.08" rx="6.07" ry="17.83" transform="translate(-5.73 6.05) rotate(-23.04)"/><g class="cls-4"><ellipse cx="8.94" cy="18.37" rx="6.07" ry="17.83" transform="translate(-6.48 4.96) rotate(-23.04)"/></g><ellipse class="cls-5" cx="11.97" cy="17.08" rx="6.07" ry="17.83" transform="translate(-5.73 6.05) rotate(-23.04)"/><path class="cls-6" d="M7.68,9.76A3.63,3.63,0,0,1,11.6,13,2.54,2.54,0,0,1,9,15.64a3.85,3.85,0,0,1-3.82-3.33A2.39,2.39,0,0,1,7.68,9.76Zm2.57,1.94c-.61-.33-1.14-.78-1.31-.68a14.06,14.06,0,0,0-1.79,1.56c.38.33,1,1,1.11.94A16.84,16.84,0,0,0,10.24,11.7Z"/><path class="cls-6" d="M11.75,18.8a3.41,3.41,0,0,1,3.69,3.07A2.39,2.39,0,0,1,13,24.33,3.61,3.61,0,0,1,9.45,21.2,2.25,2.25,0,0,1,11.75,18.8Zm2.41,1.82c-.57-.31-1.07-.74-1.23-.63a13.21,13.21,0,0,0-1.68,1.46c.36.31.95,1,1,.89A15.82,15.82,0,0,0,14.16,20.62Z"/></g></g></svg>