<svg xmlns="http://www.w3.org/2000/svg" xmlns:xlink="http://www.w3.org/1999/xlink" viewBox="0 0 47.97 56.06"><defs><style>.cls-1{fill:none;}.cls-1,.cls-2,.cls-4,.cls-5{stroke:#231f20;stroke-miterlimit:10;}.cls-1,.cls-5{stroke-width:2px;}.cls-2{fill:#f9fafa;}.cls-3{clip-path:url(#clip-path);}.cls-4{stroke-width:0.75px;}.cls-5{fill:#f4d80f;}</style><clipPath id="clip-path"><ellipse class="cls-1" cx="21.33" cy="39.64" rx="21.93" ry="8.51" transform="translate(-14.3 12.12) rotate(-24.03)"/></clipPath></defs><title>Ресурс 7first</title><g id="Слой_2" data-name="Слой 2"><g id="Слой_1-2" data-name="Слой 1"><ellipse class="cls-2" cx="21.33" cy="39.64" rx="21.93" ry="8.51" transform="translate(-14.3 12.12) rotate(-24.03)"/><g class="cls-3"><ellipse class="cls-4" cx="23.2" cy="43.85" rx="21.93" ry="8.51" transform="translate(-15.85 13.25) rotate(-24.03)"/></g><ellipse class="cls-1" cx="21.33" cy="39.64" rx="21.93" ry="8.51" transform="translate(-14.3 12.12) rotate(-24.03)"/><path class="cls-5" d="M27.13,5.1c-1.54-1.14-.94-5.17,3-3.83,3.5,1.19,11.49,6.43,16.09,17.55.93,2.24,1.18,5.27-.34,6.74-.78.76-2.42,1.58-12.49-1.17-6.46-1.76-9.66-3.28-10-2.6s1.9,2.05,5.37,5.6c4.53,4.63,7,7.18,6.63,10.17-.26,2.29-1.91,5.34-4.26,4.8-3.71-.86-7.29-2.86-7.29-3.66,0-1.07,5,.82,5.71-.57S26.64,33,22.45,28.76c-3.43-3.47-4.16-4.44-4.8-6.17-.8-2.17-1-5.66,5.09-6.09,3.41-.24,16.78,5,17.17,4.31C40.64,19.44,35.32,11.17,27.13,5.1Z"/></g></g></svg>