<svg xmlns="http://www.w3.org/2000/svg" viewBox="0 0 456.03 29.53">
  <defs>
    <style>
      .line{fill:none;stroke:#f4d80f;stroke-linecap:round;stroke-miterlimit:10;stroke-width:4.03px;}
      .line {
        stroke-dasharray: 800;
        stroke-dashoffset: 0;
        animation: dash 4s linear forwards;
      }
      @keyframes dash {
        from {
          stroke-dashoffset:800;
        }
        to {
          stroke-dashoffset:0;
        }
      }
    </style>
  </defs>
  <g id="Слой_2" data-name="Слой 2">
    <g id="Слой_1-2" data-name="Слой 1">
      <path class="line" d="M2,27.51C13.16,11.67,25.07,2,34.3,2c13.84,0,20,25.38,33.44,25.49C81.69,27.63,87.23,1.9,101.18,2s18.7,25.49,32.29,25.49S152,2.09,165.75,2c14-.07,19.58,25.61,33.44,25.49S217.81,2.07,231.47,2c13.45,0,18.4,25.38,32.29,25.49S283.36,1.85,297.2,2,316,27.5,329.48,27.51,348.19,2,361.77,2s18.45,25.36,32.29,25.49S413.29,2.43,427.49,2c7.29-.21,16.09,6.13,26.52,25.49"/>
    </g>
  </g>
</svg>
